<svg width="49" height="56" viewBox="0 0 49 56" fill="none" xmlns="http://www.w3.org/2000/svg">
<path fill-rule="evenodd" clip-rule="evenodd" d="M19.989 0.510854C13.5251 1.55876 7.42655 6.33539 4.46121 12.6722C1.0499 19.9627 2.36888 30.3062 7.47738 36.3251L8.9578 38.0691L13.413 33.6582L17.8688 29.2474L16.7242 27.1804C15.2104 24.4473 14.8048 21.9808 15.4655 19.5277C16.9529 14.0041 22.9897 11.3746 28.291 13.9408C32.7219 16.086 35.6234 21.3993 35.6134 27.3519C35.6065 31.7697 34.5257 34.6254 31.662 37.7951C26.5007 43.508 17.4058 44.382 11.0481 39.7763L8.8975 38.2186L4.44875 42.6285L0 47.0384L2.18152 49.0316C7.9951 54.3429 17.7068 56.8064 25.9685 55.0654C33.4842 53.4813 40.0537 49.0007 44.0725 42.7182C49.3728 34.4326 49.8098 22.8488 45.1647 13.7814L43.4466 10.4279L45.1717 5.6622C46.1204 3.04118 46.8968 0.694224 46.8968 0.446074C46.8968 0.198423 44.5762 0.815806 41.7399 1.81837L36.5826 3.64113L33.6427 2.33261C30.773 1.05548 25.8225 -0.108524 23.7591 0.00807616C23.193 0.0399669 21.4963 0.266193 19.989 0.510854Z" fill="black"/>
<circle cx="24.1672" cy="21.6757" r="4.73378" fill="black"/>
</svg>
